<svg width="206" height="54" viewBox="0 0 206 54" fill="none" xmlns="http://www.w3.org/2000/svg">
<path d="M34.7809 15.4029C34.8502 13.028 34.1133 11.2084 32.5699 9.944C31.0439 8.67964 28.8503 8.04746 25.9891 8.04746C23.9775 8.04746 22.2001 8.34646 20.6568 8.94447C19.1308 9.52539 17.8996 10.337 16.9632 11.3792C16.0268 12.4044 15.4458 13.5748 15.2204 14.8904C15.0297 15.9668 15.125 16.9065 15.5065 17.7095C15.888 18.5126 16.469 19.196 17.2493 19.7598C18.047 20.3237 18.9487 20.7935 19.9545 21.1694C20.9776 21.5453 22.018 21.8614 23.0758 22.1177L27.8619 23.3479C29.7694 23.8092 31.5902 24.4328 33.3242 25.2188C35.0583 25.9877 36.5583 26.9786 37.8242 28.1917C39.1074 29.3878 40.0438 30.8315 40.6334 32.523C41.223 34.2145 41.3184 36.1965 40.9195 38.4689C40.3993 41.5444 39.1421 44.2525 37.1479 46.5933C35.171 48.9169 32.5699 50.7366 29.3445 52.0522C26.1365 53.3507 22.3995 54 18.1337 54C14.0066 54 10.521 53.3678 7.67715 52.1035C4.83325 50.822 2.75235 48.9682 1.43444 46.542C0.133882 44.1158 -0.282299 41.1685 0.185904 37.7H9.68001C9.48926 39.5282 9.79273 41.0489 10.5904 42.262C11.4054 43.4751 12.5759 44.3806 14.1019 44.9786C15.6279 45.5766 17.3967 45.8756 19.4082 45.8756C21.5065 45.8756 23.4053 45.5681 25.1047 44.953C26.8041 44.3208 28.1914 43.4495 29.2665 42.3389C30.359 41.2112 31.0266 39.8956 31.2694 38.392C31.5121 37.0422 31.3127 35.9146 30.6711 35.009C30.0295 34.1035 29.0324 33.3517 27.6798 32.7537C26.3446 32.1386 24.7492 31.5918 22.8937 31.1134L17.1192 29.5757C12.9401 28.448 9.76672 26.7565 7.59911 24.5012C5.44885 22.2458 4.68585 19.2387 5.31012 15.4798C5.83035 12.3702 7.13958 9.66208 9.23782 7.35548C11.3361 5.0318 13.9632 3.22924 17.1192 1.94779C20.2753 0.649264 23.7261 0 27.4717 0C31.252 0 34.4514 0.649264 37.0699 1.94779C39.7057 3.24632 41.6305 5.05743 42.8444 7.38111C44.0756 9.68771 44.4831 12.3617 44.0669 15.4029H34.7809Z" fill="white"/>
<path d="M65.5457 0.717608L56.7019 53.2055H47.0517L55.8955 0.717608H65.5457Z" fill="white"/>
<path d="M72.3021 8.68818L73.6547 0.717608H116.157L114.805 8.68818H98.3394L90.8481 53.2055H81.276L88.7672 8.68818H72.3021Z" fill="white"/>
<path d="M114.865 53.2055L120.761 18.2136H134.079C136.807 18.2136 139.015 18.7148 140.703 19.7171C142.391 20.7081 143.564 22.0807 144.223 23.8348C144.882 25.5776 145.021 27.5653 144.639 29.7978C144.269 32.0418 143.454 34.0351 142.194 35.7779C140.946 37.5206 139.298 38.8932 137.252 39.8956C135.206 40.8866 132.813 41.3821 130.073 41.3821H121.247L122.131 36.1709H130.09C131.686 36.1709 133.038 35.8975 134.148 35.3507C135.27 34.804 136.154 34.0522 136.801 33.0954C137.449 32.1386 137.877 31.0394 138.085 29.7978C138.281 28.5562 138.218 27.4627 137.894 26.5173C137.57 25.5719 136.94 24.8372 136.004 24.3132C135.079 23.7779 133.813 23.5102 132.206 23.5102H126.31L121.299 53.2055H114.865Z" fill="#30D2B2"/>
<path d="M146.846 53.2055H139.979L158.378 18.2136H166.32L172.944 53.2055H166.077L161.308 25.3897H161.031L146.846 53.2055ZM149.378 39.4855H168.106L167.239 44.5771H148.511L149.378 39.4855Z" fill="#30D2B2"/>
<path d="M176.763 23.5273L177.665 18.2136H206L205.098 23.5273H194.122L189.127 53.2055H182.746L187.74 23.5273H176.763Z" fill="#30D2B2"/>
</svg>
